<svg width="40" height="36" viewBox="0 0 40 36" fill="none" xmlns="http://www.w3.org/2000/svg">
<path d="M33.9199 12.1294C33.1667 11.8397 32.3631 11.5768 31.5182 11.3409C31.7363 10.4912 31.9105 9.66376 32.0363 8.86656C32.6906 4.71703 31.9675 1.80622 30.0001 0.670309C29.4282 0.340097 28.7709 0.172607 28.0466 0.172607C25.7587 0.172607 22.8678 1.87176 19.9514 4.7412C19.3143 4.1155 18.6743 3.54078 18.0363 3.02486C14.77 0.383331 11.8874 -0.445861 9.92017 0.690054C8.65583 1.42001 7.88689 2.91074 7.69668 5.00086C7.66468 5.35193 7.9234 5.66239 8.27447 5.69431C8.62664 5.72682 8.93591 5.46759 8.96791 5.11652C9.07328 3.95959 9.43464 2.44435 10.5584 1.79559C12.0146 0.95465 14.4477 1.76452 17.2336 4.01737C17.8415 4.50895 18.4518 5.05712 19.0601 5.65422C17.8368 6.95576 16.6196 8.45371 15.4507 10.1093C13.3946 10.2964 11.4361 10.6104 9.63872 11.041C9.324 9.81754 9.10783 8.65014 9.00119 7.56639C8.96672 7.21559 8.65574 6.95925 8.30349 6.99371C7.95268 7.02818 7.69625 7.34061 7.73081 7.69142C7.84366 8.83814 8.07191 10.0715 8.4046 11.3623C7.58791 11.5926 6.81055 11.8484 6.08026 12.1293C2.15923 13.6374 0 15.7191 0 17.9908C0 20.2626 2.15923 22.3443 6.08009 23.8523C6.83328 24.142 7.63685 24.4049 8.48179 24.6408C8.26366 25.4905 8.08953 26.3179 7.96374 27.1151C7.30936 31.2646 8.03251 34.1754 9.99991 35.3113C10.5718 35.6415 11.2291 35.809 11.9534 35.809C14.215 35.809 17.0659 34.1481 19.9482 31.3383C20.5656 31.9414 21.1856 32.4965 21.8037 32.9964C24.1153 34.8658 26.2343 35.8275 27.973 35.8274C28.6911 35.8273 29.3448 35.6632 29.9199 35.3312C31.8873 34.1952 32.6105 31.2844 31.9561 27.1349C31.8304 26.3378 31.6563 25.5105 31.4381 24.6609C32.7521 24.299 33.9607 23.8728 35.0311 23.3877C35.3523 23.2421 35.4946 22.8639 35.349 22.5428C35.2035 22.2217 34.8252 22.0793 34.5042 22.2249C33.4904 22.6844 32.3444 23.0888 31.0963 23.4328C30.5803 21.7084 29.8932 19.9083 29.0558 18.0874C29.9308 16.2047 30.646 14.3424 31.1786 12.5609C35.9161 13.8874 38.7234 15.9824 38.7234 17.9908C38.7234 19.2884 37.5918 20.3591 36.6426 21.0286C36.3545 21.2318 36.2857 21.6301 36.4888 21.9181C36.6921 22.2063 37.0903 22.275 37.3784 22.0718C39.0935 20.8621 40 19.4508 40 17.9908C40 15.7191 37.8408 13.6374 33.9199 12.1294ZM28.0465 1.44929C28.5438 1.44929 28.9864 1.55916 29.3617 1.77593C30.818 2.61678 31.3333 5.12878 30.7751 8.66776C30.6555 9.4258 30.49 10.2132 30.2824 11.0226C28.4775 10.5946 26.5123 10.2838 24.4499 10.1004C23.2928 8.46282 22.0783 6.9652 20.8435 5.65337C21.0694 5.43056 21.2956 5.21439 21.5213 5.00639C24.0108 2.71252 26.3281 1.44929 28.0465 1.44929ZM19.9532 6.56861C20.9163 7.59516 21.8681 8.74027 22.7892 9.98154C21.8727 9.93159 20.9414 9.90571 20 9.90571C19.0271 9.90571 18.0649 9.93303 17.1187 9.98631C18.0386 8.74716 18.9916 7.59737 19.9532 6.56861ZM19.9487 29.5181C18.9514 28.4611 17.966 27.2764 17.0137 25.9891C17.9936 26.0465 18.9911 26.0759 20 26.0759C20.9718 26.0759 21.9346 26.0476 22.8826 25.9935C21.9311 27.2755 20.9442 28.4624 19.9487 29.5181ZM20 24.7993C18.6285 24.7993 17.3125 24.7462 16.0584 24.6475C15.354 23.6198 14.6725 22.5386 14.0237 21.4148C13.3852 20.3089 12.7978 19.1929 12.2657 18.0825C12.818 16.9198 13.4323 15.7495 14.1037 14.5866C14.7539 13.4604 15.4441 12.3684 16.1613 11.3264C17.3846 11.2329 18.6659 11.1823 20 11.1823C21.2998 11.1823 22.5494 11.2303 23.7442 11.3192C24.462 12.3632 25.1561 13.4626 25.8164 14.6063C26.4845 15.7635 27.0959 16.9279 27.6462 18.0849C27.1169 19.1863 26.5321 20.294 25.8964 21.395C25.2475 22.519 24.5586 23.609 23.8428 24.6494C22.5904 24.7479 21.3041 24.7993 20 24.7993ZM14.4157 24.4883C12.8453 24.3068 11.3875 24.0518 10.0579 23.7385C10.4616 22.3947 10.9734 21.0015 11.5837 19.5861C12.0006 20.4106 12.4457 21.2349 12.9181 22.0531C13.4005 22.8887 13.901 23.7017 14.4157 24.4883ZM14.517 11.4815C13.9969 12.2746 13.4891 13.0978 12.9981 13.9483C12.4932 14.8228 12.0195 15.7023 11.5788 16.5804C10.9369 15.1066 10.3994 13.6548 9.97983 12.2614C11.3588 11.9329 12.877 11.6671 14.517 11.4815ZM1.2766 17.9908C1.2766 15.9932 4.05396 13.9099 8.74528 12.5823C9.27592 14.3527 9.98791 16.2095 10.8563 18.0842C10.0212 19.9022 9.33591 21.6992 8.82119 23.4208C4.08392 22.0942 1.2766 19.9992 1.2766 17.9908ZM11.9535 34.5323C11.4562 34.5323 11.0136 34.4225 10.6383 34.2057C9.18196 33.3649 8.66672 30.8529 9.22494 27.3139C9.34451 26.5558 9.51004 25.7684 9.71762 24.9591C11.4638 25.3731 13.3602 25.6775 15.3494 25.8628C16.5367 27.5485 17.7849 29.0869 19.054 30.4286C18.8622 30.6159 18.6703 30.7987 18.4787 30.9752C15.9892 33.2692 13.6719 34.5323 11.9535 34.5323ZM30.6951 27.3337C31.2534 30.8727 30.7381 33.3847 29.2818 34.2255C27.8254 35.0663 25.3925 34.2565 22.6066 32.0038C22.0199 31.5294 21.4309 31.0023 20.8438 30.4294C22.1001 29.1036 23.3512 27.5695 24.5513 25.8695C26.5455 25.6864 28.4511 25.3846 30.2014 24.9751C30.4095 25.7858 30.5754 26.5745 30.6951 27.3337ZM29.8586 23.7462C28.4914 24.0639 27.0236 24.3139 25.4893 24.4905C26.0071 23.7004 26.5128 22.8804 27.0019 22.0334C27.4714 21.2201 27.9136 20.4026 28.3277 19.586C28.9401 21.0038 29.4535 22.3998 29.8586 23.7462ZM28.3336 16.5849C27.8951 15.7118 27.424 14.8375 26.922 13.968C26.4268 13.1103 25.9127 12.2763 25.3835 11.4703C27.0307 11.6529 28.5559 11.9165 29.9421 12.2432C29.5204 13.6468 28.9803 15.1047 28.3336 16.5849Z" fill="#333333"/>
<path d="M20 14.7993C18.2402 14.7993 16.8085 16.231 16.8085 17.9908C16.8085 19.7506 18.2402 21.1823 20 21.1823C21.7598 21.1823 23.1915 19.7506 23.1915 17.9908C23.1915 16.231 21.7598 14.7993 20 14.7993ZM20 19.9057C18.9442 19.9057 18.0851 19.0466 18.0851 17.9908C18.0851 16.935 18.9442 16.0759 20 16.0759C21.0558 16.0759 21.9149 16.935 21.9149 17.9908C21.9149 19.0466 21.0558 19.9057 20 19.9057Z" fill="#333333"/>
</svg>
