<svg width="40" height="32" viewBox="0 0 40 32" fill="none" xmlns="http://www.w3.org/2000/svg">
<path d="M38.5992 17.8735H31.7986C32.9813 16.5541 33.4745 14.6978 33.0176 12.9144L31.4615 6.84233C31.3787 6.51889 31.0494 6.32397 30.7258 6.4067C30.4023 6.48959 30.2072 6.81897 30.2901 7.14248L31.8462 13.2146C32.2953 14.9673 31.5631 16.8113 30.0583 17.7849L26.8357 13.7488C26.2031 12.9565 25.2587 12.5021 24.2448 12.5021H20H15.7553C14.7414 12.5021 13.7971 12.9566 13.1644 13.7488L9.94182 17.7849C8.43705 16.8113 7.70494 14.9673 8.154 13.2146L10.1292 5.50631C10.4474 4.26443 11.3543 3.25497 12.5551 2.80599L14.2157 2.18513C14.6003 2.04114 15.0367 2.13599 15.3271 2.42638L15.3273 2.42654L16.9828 4.08201C17.4012 4.50045 17.9575 4.73084 18.5492 4.73084H20H21.4509C22.0426 4.73084 22.5989 4.50037 23.0174 4.08201L24.6729 2.42646C24.9634 2.13599 25.3995 2.0413 25.7846 2.18513L27.4451 2.80599C28.4214 3.17107 29.199 3.89357 29.6347 4.84037C29.7366 5.06185 29.9555 5.19248 30.1844 5.19248C30.2689 5.19248 30.3548 5.17467 30.4367 5.13701C30.7401 4.9974 30.8729 4.63834 30.7333 4.33498C30.1633 3.0963 29.146 2.15107 27.8686 1.67341L26.2082 1.05255C25.4655 0.774813 24.6341 0.911766 24.0197 1.39435H15.9806C15.3662 0.911688 14.5348 0.774735 13.7921 1.05255L12.1316 1.67341C10.5606 2.26083 9.37416 3.58146 8.95783 5.20615L6.98259 12.9144C6.52564 14.6978 7.01876 16.5542 8.2015 17.8735H1.40094C0.628439 17.8735 0 18.502 0 19.2744V23.1167V25.2934V29.1356C0 29.908 0.628439 30.5364 1.40094 30.5364H3.85618V30.9389C3.85618 31.2728 4.12688 31.5435 4.46079 31.5435C4.7947 31.5435 5.0654 31.2728 5.0654 30.9389V30.5364H34.9346V30.9389C34.9346 31.2728 35.2053 31.5435 35.5392 31.5435C35.8731 31.5435 36.1438 31.2728 36.1438 30.9389V30.5364H38.5991C39.3716 30.5364 40 29.908 40 29.1356V19.2744C40.0001 18.502 39.3716 17.8735 38.5992 17.8735ZM22.7857 2.60357L22.1623 3.22693C21.9723 3.41701 21.7196 3.52162 21.4509 3.52162H20H18.5492C18.2805 3.52162 18.0278 3.41701 17.8378 3.22701L17.2144 2.60357H22.7857ZM38.5992 29.3271H1.40094C1.29532 29.3271 1.2093 29.2412 1.2093 29.1356V25.2934V23.7213H20.4368V24.6888H3.1979C2.86399 24.6888 2.59329 24.9595 2.59329 25.2934C2.59329 25.6273 2.86399 25.898 3.1979 25.898H20.5254C21.1434 25.898 21.6461 25.3953 21.6461 24.7772V23.6328C21.6461 23.0148 21.1434 22.512 20.5254 22.512H1.2093V19.2745C1.2093 19.1688 1.29524 19.0829 1.40094 19.0829H9.99127C9.99744 19.0831 10.0036 19.0841 10.0097 19.0841C10.0168 19.0841 10.0238 19.0831 10.031 19.0829H12.8184C13.1523 19.0829 13.423 18.8122 13.423 18.4783C13.423 18.1444 13.1523 17.8737 12.8184 17.8737H11.4185L14.1093 14.5035C14.5112 14.0002 15.1111 13.7115 15.7553 13.7115H20H24.2448C24.889 13.7115 25.4889 14.0002 25.8908 14.5035L28.5817 17.8737H15.4577C15.1238 17.8737 14.8531 18.1444 14.8531 18.4783C14.8531 18.8122 15.1238 19.0829 15.4577 19.0829H29.969C29.9762 19.0831 29.9832 19.0841 29.9903 19.0841C29.9965 19.0841 30.0026 19.083 30.0087 19.0829H38.5991C38.7048 19.0829 38.7907 19.1688 38.7907 19.2745V29.1356H38.7908C38.7908 29.2412 38.7048 29.3271 38.5992 29.3271Z" fill="#333333"/>
</svg>
